<mxfile host="app.diagrams.net" modified="2021-08-18T19:59:02.765Z" agent="5.0 (Windows NT 10.0; Win64; x64) AppleWebKit/537.36 (KHTML, like Gecko) Chrome/92.0.4515.131 Safari/537.36" etag="mXUNCIHbK2TYIRAKPk7O" version="14.9.7" type="github">
  <diagram id="C5RBs43oDa-KdzZeNtuy" name="Page-1">
    <mxGraphModel dx="1038" dy="547" grid="0" gridSize="10" guides="1" tooltips="1" connect="1" arrows="1" fold="1" page="1" pageScale="1" pageWidth="827" pageHeight="1169" math="0" shadow="0">
      <root>
        <mxCell id="WIyWlLk6GJQsqaUBKTNV-0" />
        <mxCell id="WIyWlLk6GJQsqaUBKTNV-1" parent="WIyWlLk6GJQsqaUBKTNV-0" />
        <mxCell id="GWAgIChKHwDa8BGb7tWR-4" value="" style="edgeStyle=orthogonalEdgeStyle;rounded=0;orthogonalLoop=1;jettySize=auto;html=1;" edge="1" parent="WIyWlLk6GJQsqaUBKTNV-1" source="GWAgIChKHwDa8BGb7tWR-0" target="GWAgIChKHwDa8BGb7tWR-2">
          <mxGeometry relative="1" as="geometry" />
        </mxCell>
        <mxCell id="GWAgIChKHwDa8BGb7tWR-0" value="初始化数据库&lt;br&gt;（创建数据库、建表）" style="rounded=1;whiteSpace=wrap;html=1;" vertex="1" parent="WIyWlLk6GJQsqaUBKTNV-1">
          <mxGeometry x="180" y="40" width="130" height="60" as="geometry" />
        </mxCell>
        <mxCell id="GWAgIChKHwDa8BGb7tWR-6" value="" style="edgeStyle=orthogonalEdgeStyle;rounded=0;orthogonalLoop=1;jettySize=auto;html=1;" edge="1" parent="WIyWlLk6GJQsqaUBKTNV-1" source="GWAgIChKHwDa8BGb7tWR-1" target="GWAgIChKHwDa8BGb7tWR-3">
          <mxGeometry relative="1" as="geometry" />
        </mxCell>
        <mxCell id="GWAgIChKHwDa8BGb7tWR-1" value="读取insertSQL.sql文件&lt;br&gt;分别在两个数据库执行随机生成的INSERT SQL语句" style="rounded=1;whiteSpace=wrap;html=1;" vertex="1" parent="WIyWlLk6GJQsqaUBKTNV-1">
          <mxGeometry x="148.75" y="260" width="192.25" height="60" as="geometry" />
        </mxCell>
        <mxCell id="GWAgIChKHwDa8BGb7tWR-5" value="" style="edgeStyle=orthogonalEdgeStyle;rounded=0;orthogonalLoop=1;jettySize=auto;html=1;" edge="1" parent="WIyWlLk6GJQsqaUBKTNV-1" source="GWAgIChKHwDa8BGb7tWR-2" target="GWAgIChKHwDa8BGb7tWR-1">
          <mxGeometry relative="1" as="geometry" />
        </mxCell>
        <mxCell id="GWAgIChKHwDa8BGb7tWR-2" value="随机生成数据构建INSERT语句并保存至insertSQL.sql文件中" style="rounded=1;whiteSpace=wrap;html=1;" vertex="1" parent="WIyWlLk6GJQsqaUBKTNV-1">
          <mxGeometry x="152.75" y="150" width="184.5" height="60" as="geometry" />
        </mxCell>
        <mxCell id="GWAgIChKHwDa8BGb7tWR-8" value="" style="edgeStyle=orthogonalEdgeStyle;rounded=0;orthogonalLoop=1;jettySize=auto;html=1;" edge="1" parent="WIyWlLk6GJQsqaUBKTNV-1" source="GWAgIChKHwDa8BGb7tWR-3" target="GWAgIChKHwDa8BGb7tWR-7">
          <mxGeometry relative="1" as="geometry" />
        </mxCell>
        <mxCell id="GWAgIChKHwDa8BGb7tWR-3" value="随机生成SELECT SQL语句并保存至selectSQL.sql文件中" style="rounded=1;whiteSpace=wrap;html=1;" vertex="1" parent="WIyWlLk6GJQsqaUBKTNV-1">
          <mxGeometry x="162.5" y="370" width="165" height="60" as="geometry" />
        </mxCell>
        <mxCell id="GWAgIChKHwDa8BGb7tWR-10" value="" style="edgeStyle=orthogonalEdgeStyle;rounded=0;orthogonalLoop=1;jettySize=auto;html=1;" edge="1" parent="WIyWlLk6GJQsqaUBKTNV-1" source="GWAgIChKHwDa8BGb7tWR-7" target="GWAgIChKHwDa8BGb7tWR-9">
          <mxGeometry relative="1" as="geometry" />
        </mxCell>
        <mxCell id="GWAgIChKHwDa8BGb7tWR-7" value="读取insertSQL.sql文件&lt;br&gt;分别在两个数据库执行随机生成的SELECT SQL语句" style="rounded=1;whiteSpace=wrap;html=1;" vertex="1" parent="WIyWlLk6GJQsqaUBKTNV-1">
          <mxGeometry x="441" y="370" width="196" height="60" as="geometry" />
        </mxCell>
        <mxCell id="GWAgIChKHwDa8BGb7tWR-12" value="" style="edgeStyle=orthogonalEdgeStyle;rounded=0;orthogonalLoop=1;jettySize=auto;html=1;" edge="1" parent="WIyWlLk6GJQsqaUBKTNV-1" source="GWAgIChKHwDa8BGb7tWR-9" target="GWAgIChKHwDa8BGb7tWR-11">
          <mxGeometry relative="1" as="geometry" />
        </mxCell>
        <mxCell id="GWAgIChKHwDa8BGb7tWR-9" value="分别输出执行结果至两个文件" style="rounded=1;whiteSpace=wrap;html=1;" vertex="1" parent="WIyWlLk6GJQsqaUBKTNV-1">
          <mxGeometry x="479" y="260" width="120" height="60" as="geometry" />
        </mxCell>
        <mxCell id="GWAgIChKHwDa8BGb7tWR-11" value="调用difflib库对生成的两个执行结果文件进行对比&lt;br&gt;生成对比结果" style="rounded=1;whiteSpace=wrap;html=1;" vertex="1" parent="WIyWlLk6GJQsqaUBKTNV-1">
          <mxGeometry x="460" y="150" width="158" height="60" as="geometry" />
        </mxCell>
      </root>
    </mxGraphModel>
  </diagram>
</mxfile>
